<svg fill="none" height="2rem" width="2rem" viewBox="0 0 24 24" xmlns="http://www.w3.org/2000/svg"><g fill="white"><path d="m19.4791 7.09052c-.26-.32-.73-.37-1.05-.11s-.37.73-.11 1.05c1.13 1.4 1.76 3.05998 1.82 4.79998.16 4.48-3.36 8.26-7.85 8.41-4.49004.16-8.26004-3.36-8.42004-7.84-.16-4.47998 3.36-8.25998 7.85004-8.40998.57-.02 1.17.03 1.82.16.04.01.08 0 .12 0 .1.05.22.08.33.08.17 0 .33-.05.47-.17.32-.26.37-.73.12-1.05l-1.98-2.47c-.26-.32-.73-.38-1.05-.12s-.37.73-.12 1.05l.83 1.03c-.19-.01-.39-.02-.58-.01-5.31004.18-9.48004 4.66-9.29004 9.96998.19 5.31 4.66 9.48 9.97004 9.29 5.31-.19 9.48-4.66 9.29-9.97-.09-2.07-.83-4.03998-2.17-5.68998z"/><path d="m12.3806 16.9203h-2.29c-.40998 0-.74998-.34-.74998-.75s.34-.75.74998-.75h2.29c.43 0 .78-.35.78-.78s-.35-.78-.78-.78h-2.29c-.23998 0-.46998-.12-.60998-.31s-.18-.45-.1-.68l.75998-2.29c.1-.31.39-.51.71-.51h3.06c.41 0 .75.34.75.75s-.34.75-.75.75h-2.52l-.26.79h1.25c1.26 0 2.28 1.02 2.28 2.28s-1.02 2.28-2.28 2.28z"/></g></svg>